<?xml version="1.0" encoding="utf-8"?>
<!-- Generator: Adobe Illustrator 27.3.1, SVG Export Plug-In . SVG Version: 6.00 Build 0)  -->
<svg version="1.1" id="Group_2371" xmlns="http://www.w3.org/2000/svg" xmlns:xlink="http://www.w3.org/1999/xlink" x="0px" y="0px"
	 viewBox="0 0 512 148.5" style="enable-background:new 0 0 512 148.5;" xml:space="preserve">
<style type="text/css">
	.st0{opacity:0.5;enable-background:new    ;}
	.st1{fill:none;}
	.st2{fill:#FFFFFF;}
	.st3{fill:#5C4300;}
	.st4{font-family:'Crimson-Semibold';}
	.st5{font-size:60px;}
</style>
<g id="Group_2365">
	<path id="Rectangle_842" class="st0" d="M57.6,17.9h396.8c31.8,0,57.6,25.8,57.6,57.6l0,0c0,31.8-25.8,57.6-57.6,57.6H57.6
		C25.8,133.1,0,107.3,0,75.5l0,0C0,43.7,25.8,17.9,57.6,17.9L57.6,17.9z"/>
	<g id="Rectangle_840" transform="translate(0 17.92)">
		<path id="Path_4650" class="st1" d="M57.6,0h396.8C486.2,0,512,25.8,512,57.6l0,0c0,31.8-25.8,57.6-57.6,57.6H57.6
			C25.8,115.2,0,89.4,0,57.6l0,0C0,25.8,25.8,0,57.6,0L57.6,0z"/>
		<path id="Path_4651" class="st2" d="M454.4,115.2H57.6C25.8,115.2,0,89.4,0,57.6S25.8,0,57.6,0h396.8C486.2,0,512,25.8,512,57.6
			S486.2,115.2,454.4,115.2L454.4,115.2z M57.6,2.6c-30.4,0-55,24.6-55,55c0,30.4,24.6,55,55,55h396.8c30.4,0,55-24.6,55-55
			c0-30.4-24.6-55-55-55l0,0H57.6z"/>
	</g>
	<path id="Rectangle_843" d="M437.8,0L437.8,0c41,0,74.2,33.2,74.2,74.2l0,0c0,41-33.2,74.2-74.2,74.2c0,0,0,0,0,0l0,0
		c-41,0-74.2-33.2-74.2-74.2c0,0,0,0,0,0l0,0C363.5,33.2,396.8,0,437.8,0C437.8,0,437.8,0,437.8,0z"/>
	<g id="Rectangle_841" transform="translate(363.52)">
		<path id="Path_4652" class="st1" d="M74.2,0L74.2,0c41,0,74.2,33.2,74.2,74.2l0,0c0,41-33.2,74.2-74.2,74.2c0,0,0,0,0,0l0,0
			c-41,0-74.2-33.2-74.2-74.2c0,0,0,0,0,0l0,0C0,33.2,33.2,0,74.2,0C74.2,0,74.2,0,74.2,0z"/>
		<path id="Path_4653" class="st2" d="M74.2,148.5c-41,0-74.2-33.2-74.2-74.2S33.2,0,74.2,0s74.2,33.2,74.2,74.2l0,0
			C148.4,115.2,115.2,148.4,74.2,148.5z M74.2,2.6C34.7,2.6,2.6,34.7,2.6,74.2s32.1,71.7,71.7,71.7s71.7-32.1,71.7-71.7
			C145.9,34.7,113.8,2.6,74.2,2.6z"/>
	</g>
	<g id="Group_2367" transform="translate(404.479 40.96)">
		<path id="Path_4643" class="st3" d="M52.3,55.7l10.2,10.2c0.9,1,2.4,1,3.4,0.1c1-0.9,1-2.4,0.1-3.4c0,0-0.1-0.1-0.1-0.1l0,0
			L4.1,0.7C3.1-0.2,1.6-0.2,0.7,0.8c-0.9,0.9-0.9,2.4,0,3.3l0,0l15,15L52.3,55.7z"/>
		<path id="Path_4644" class="st2" d="M52.9,15.6c5.5,4.2,8.8,10.7,8.9,17.6c0,5-1.7,9.8-4.8,13.7l3.3,3.3c4.1-4.7,6.3-10.8,6.3-17
			c-0.1-8.2-4-15.9-10.5-20.8c-1.1-0.8-2.6-0.7-3.5,0.4l0,0C51.8,13.6,51.9,14.9,52.9,15.6L52.9,15.6z"/>
		<g id="Group_2367-2">
			<path id="Path_4645" class="st2" d="M65.9,62.5L65.9,62.5L4.1,0.7C3.1-0.2,1.6-0.2,0.7,0.8c-0.9,0.9-0.9,2.4,0,3.3l15,15H4.7
				c-2.5,0-4.6,2-4.7,4.5V43c0.1,2.5,2.2,4.5,4.7,4.5h11L38.9,66c0.4,0.3,0.9,0.5,1.5,0.5c0.4,0,0.7-0.1,1-0.2
				c0.8-0.4,1.3-1.2,1.3-2.1v-18l9.5,9.5l10.2,10.2c0.9,1,2.4,1,3.4,0.1C66.8,65,66.8,63.5,65.9,62.5C65.9,62.6,65.9,62.5,65.9,62.5
				L65.9,62.5L65.9,62.5z"/>
			<path id="Path_4646" class="st2" d="M42.8,2.4c0-0.9-0.5-1.7-1.3-2.1c-0.3-0.1-0.7-0.2-1-0.2c-0.5,0-1.1,0.2-1.5,0.5L23.2,13.1
				l19.6,19.6L42.8,2.4z"/>
		</g>
		<path id="Path_4647" class="st2" d="M47.1,22.6c3.2,2.6,5,6.5,5.1,10.7c0,2.5-0.7,4.9-1.9,7l3.4,3.4c2.2-3,3.3-6.7,3.3-10.4
			c-0.1-5.3-2.5-10.4-6.6-13.8c-1.1-0.9-2.7-0.8-3.6,0.3l0,0C46.1,20.6,46.3,21.9,47.1,22.6L47.1,22.6z"/>
	</g>
	<text transform="matrix(1 0 0 1 66.7455 93.0834)" class="st2 st4 st5">Sound Off</text>
</g>
</svg>
