<svg xmlns="http://www.w3.org/2000/svg" width="512" height="512" viewBox="0 0 512 512">
  <defs>
    <style>
      .cls-1 {
        fill: none;
      }

      .cls-2 {
        opacity: 0.5;
      }

      .cls-3 {
        fill: #fff;
      }
    </style>
  </defs>
  <g id="Play" transform="translate(20546 -3099)">
    <rect id="Rectangle_847" data-name="Rectangle 847" class="cls-1" width="512" height="512" transform="translate(-20546 3099)"/>
    <g id="Group_2373" data-name="Group 2373" transform="translate(6 416)">
      <circle id="Ellipse_34" data-name="Ellipse 34" class="cls-2" cx="250" cy="250" r="250" transform="translate(-20546 2689)"/>
      <g id="Group_2363" data-name="Group 2363" transform="translate(-20360.998 2844.001)">
        <g id="Group_2362" data-name="Group 2362" transform="translate(0)">
          <path id="Path_4640" data-name="Path 4640" class="cls-3" d="M110.207,35.568,48.281-.284-13.228-35.739A24.563,24.563,0,0,0-32.021-38.3,24.954,24.954,0,0,0-46.968-26.769a25.367,25.367,0,0,0-2.562,5.978c-.43,1.3-.43,2.992-.854,4.7V130.836a25.2,25.2,0,0,0,7.262,17.509,24.174,24.174,0,0,0,17.509,7.262,41.975,41.975,0,0,0,14.093-4.7L49.1,115.883h.43l.424-.43,62.787-36.308a24.614,24.614,0,0,0,11.531-15.377,16.072,16.072,0,0,0,.43-4.7C124.73,44.967,110.207,35.568,110.207,35.568Z" transform="translate(50.384 39.131)"/>
        </g>
      </g>
    </g>
  </g>
</svg>
