<?xml version="1.0" encoding="utf-8"?>
<!-- Generator: Adobe Illustrator 27.3.1, SVG Export Plug-In . SVG Version: 6.00 Build 0)  -->
<svg version="1.1" id="Group_2372" xmlns="http://www.w3.org/2000/svg" xmlns:xlink="http://www.w3.org/1999/xlink" x="0px" y="0px"
	 viewBox="0 0 512 148.5" style="enable-background:new 0 0 512 148.5;" xml:space="preserve">
<style type="text/css">
	.st0{opacity:0.5;enable-background:new    ;}
	.st1{fill:none;}
	.st2{fill:#FFFFFF;}
	.st3{font-family:'Crimson-Semibold';}
	.st4{font-size:60px;}
</style>
<path id="Rectangle_842-2" class="st0" d="M57.6,17.9h396.8c31.8,0,57.6,25.8,57.6,57.6l0,0c0,31.8-25.8,57.6-57.6,57.6H57.6
	C25.8,133.1,0,107.3,0,75.5l0,0C0,43.7,25.8,17.9,57.6,17.9L57.6,17.9z"/>
<g id="Rectangle_840-2" transform="translate(0 17.92)">
	<path id="Path_4662" class="st1" d="M57.6,0h396.8C486.2,0,512,25.8,512,57.6l0,0c0,31.8-25.8,57.6-57.6,57.6H57.6
		C25.8,115.2,0,89.4,0,57.6l0,0C0,25.8,25.8,0,57.6,0L57.6,0z"/>
	<path id="Path_4663" class="st2" d="M454.4,115.2H57.6C25.8,115.2,0,89.4,0,57.6S25.8,0,57.6,0h396.8C486.2,0,512,25.8,512,57.6
		S486.2,115.2,454.4,115.2L454.4,115.2z M57.6,2.6c-30.4,0-55,24.6-55,55s24.6,55,55,55h396.8c30.4,0,55-24.6,55-55s-24.6-55-55-55
		l0,0H57.6z"/>
</g>
<path id="Rectangle_843-2" d="M437.8,0L437.8,0c41,0,74.2,33.2,74.2,74.2l0,0c0,41-33.2,74.2-74.2,74.2c0,0,0,0,0,0l0,0
	c-41,0-74.2-33.2-74.2-74.2c0,0,0,0,0,0l0,0C363.5,33.2,396.8,0,437.8,0C437.8,0,437.8,0,437.8,0z"/>
<g id="Rectangle_841-2" transform="translate(363.52)">
	<path id="Path_4664" class="st1" d="M74.2,0L74.2,0c41,0,74.2,33.2,74.2,74.2l0,0c0,41-33.2,74.2-74.2,74.2c0,0,0,0,0,0l0,0
		c-41,0-74.2-33.2-74.2-74.2c0,0,0,0,0,0l0,0C0,33.2,33.2,0,74.2,0C74.2,0,74.2,0,74.2,0z"/>
	<path id="Path_4665" class="st2" d="M74.2,148.5c-41,0-74.2-33.2-74.2-74.2S33.2,0,74.2,0s74.2,33.2,74.2,74.2v0
		C148.4,115.2,115.2,148.4,74.2,148.5z M74.2,2.6C34.7,2.6,2.6,34.7,2.6,74.2s32.1,71.7,71.7,71.7s71.7-32.1,71.7-71.7
		C145.9,34.7,113.8,2.6,74.2,2.6z"/>
</g>
<g id="Group_2360" transform="translate(404.48 40.96)">
	<path id="Path_4637" class="st2" d="M41.4,0.2c-0.3-0.1-0.7-0.2-1-0.2c-0.5,0-1.1,0.2-1.5,0.5L15.8,19h-11c-2.5,0-4.6,2-4.7,4.5V43
		c0.1,2.5,2.2,4.5,4.7,4.5h11L38.9,66c0.4,0.3,0.9,0.5,1.5,0.5c0.4,0,0.7-0.1,1-0.2c0.8-0.4,1.3-1.2,1.3-2.1V2.4
		C42.8,1.5,42.3,0.6,41.4,0.2z"/>
	<g id="Group_2359" transform="translate(46.386 11.856)">
		<path id="Path_4638" class="st2" d="M0.5,7.9L0.5,7.9c-0.7,0.9-0.6,2.1,0.3,2.9c0,0,0,0,0,0l0,0c5.9,4.9,6.8,13.6,1.9,19.5
			c-0.6,0.7-1.2,1.3-1.8,1.8c-0.9,0.7-1,2-0.3,2.9c0,0,0,0,0,0l0,0l0,0c0.9,1.1,2.5,1.2,3.6,0.3c7.6-6.3,8.6-17.6,2.3-25.3
			C5.7,9.1,4.9,8.3,4,7.6C3,6.7,1.4,6.8,0.5,7.9L0.5,7.9z"/>
		<path id="Path_4639" class="st2" d="M6.1,0.9L6.1,0.9C5.4,1.7,5.5,3,6.4,3.7l0.1,0.1c9.8,7.3,11.8,21.1,4.6,30.8
			c-1.2,1.7-2.7,3.2-4.4,4.4c-0.9,0.7-1.1,1.9-0.4,2.8L6.3,42l0,0c0.9,1,2.4,1.2,3.5,0.3c11.5-8.7,13.7-25.1,5-36.6
			c-1.5-2-3.3-3.7-5.2-5.2C8.5-0.3,7-0.1,6.1,0.9z"/>
	</g>
</g>
<text transform="matrix(1 0 0 1 66.7455 93.0834)" class="st2 st3 st4">Sound On</text>
</svg>
